<svg xmlns="http://www.w3.org/2000/svg" version="1.1" xmlns:xlink="http://www.w3.org/1999/xlink" xmlns:svgjs="http://svgjs.dev/svgjs" width="1280" height="500" preserveAspectRatio="none" viewBox="0 0 1280 500"><g mask="url(&quot;#SvgjsMask1785&quot;)" fill="none"><rect width="1280" height="500" x="0" y="0" fill="rgba(28, 28, 28, 1)"></rect><path d="M2 500L502 0L574 0L74 500z" fill="url(&quot;#SvgjsLinearGradient1786&quot;)"></path><path d="M312.6 500L812.6 0L1040.6 0L540.6 500z" fill="url(&quot;#SvgjsLinearGradient1786&quot;)"></path><path d="M600.2 500L1100.2 0L1493.2 0L993.2 500z" fill="url(&quot;#SvgjsLinearGradient1786&quot;)"></path><path d="M1239 500L739 0L331 0L831 500z" fill="url(&quot;#SvgjsLinearGradient1787&quot;)"></path><path d="M949.4 500L449.4 0L108.89999999999998 0L608.9 500z" fill="url(&quot;#SvgjsLinearGradient1787&quot;)"></path><path d="M697.8 500L197.79999999999995 0L-142.70000000000005 0L357.29999999999995 500z" fill="url(&quot;#SvgjsLinearGradient1787&quot;)"></path><path d="M884.3860894146937 500L1280 104.38608941469369L1280 500z" fill="url(&quot;#SvgjsLinearGradient1786&quot;)"></path><path d="M0 500L395.6139105853063 500L 0 104.38608941469369z" fill="url(&quot;#SvgjsLinearGradient1787&quot;)"></path></g><defs><mask id="SvgjsMask1785"><rect width="1280" height="500" fill="#ffffff"></rect></mask><linearGradient x1="0%" y1="100%" x2="100%" y2="0%" id="SvgjsLinearGradient1786"><stop stop-color="rgba(239, 156, 0, 0.09)" offset="0"></stop><stop stop-opacity="0" stop-color="rgba(239, 156, 0, 0.09)" offset="0.66"></stop></linearGradient><linearGradient x1="100%" y1="100%" x2="0%" y2="0%" id="SvgjsLinearGradient1787"><stop stop-color="rgba(239, 156, 0, 0.09)" offset="0"></stop><stop stop-opacity="0" stop-color="rgba(239, 156, 0, 0.09)" offset="0.16"></stop></linearGradient></defs></svg>