<svg xmlns="http://www.w3.org/2000/svg" version="1.1" xmlns:xlink="http://www.w3.org/1999/xlink" xmlns:svgjs="http://svgjs.dev/svgjs" width="1280" height="560" preserveAspectRatio="none" viewBox="0 0 1280 560"><g mask="url(&quot;#SvgjsMask1057&quot;)" fill="none"><path d="M1009 93L1008 397" stroke-width="6" stroke="url(&quot;#SvgjsLinearGradient1058&quot;)" stroke-linecap="round" class="Up"></path><path d="M397 332L396 27" stroke-width="6" stroke="url(&quot;#SvgjsLinearGradient1058&quot;)" stroke-linecap="round" class="Up"></path><path d="M824 181L823 369" stroke-width="8" stroke="url(&quot;#SvgjsLinearGradient1059&quot;)" stroke-linecap="round" class="Down"></path><path d="M193 429L192 596" stroke-width="10" stroke="url(&quot;#SvgjsLinearGradient1059&quot;)" stroke-linecap="round" class="Down"></path><path d="M1013 59L1012 275" stroke-width="8" stroke="url(&quot;#SvgjsLinearGradient1059&quot;)" stroke-linecap="round" class="Down"></path><path d="M882 328L881 507" stroke-width="6" stroke="url(&quot;#SvgjsLinearGradient1059&quot;)" stroke-linecap="round" class="Down"></path><path d="M971 28L970 318" stroke-width="10" stroke="url(&quot;#SvgjsLinearGradient1058&quot;)" stroke-linecap="round" class="Up"></path><path d="M1094 11L1093 -245" stroke-width="6" stroke="url(&quot;#SvgjsLinearGradient1059&quot;)" stroke-linecap="round" class="Down"></path><path d="M1012 432L1011 717" stroke-width="8" stroke="url(&quot;#SvgjsLinearGradient1059&quot;)" stroke-linecap="round" class="Down"></path><path d="M1113 73L1112 229" stroke-width="10" stroke="url(&quot;#SvgjsLinearGradient1059&quot;)" stroke-linecap="round" class="Down"></path><path d="M1078 62L1077 -313" stroke-width="6" stroke="url(&quot;#SvgjsLinearGradient1058&quot;)" stroke-linecap="round" class="Up"></path><path d="M224 536L223 247" stroke-width="10" stroke="url(&quot;#SvgjsLinearGradient1058&quot;)" stroke-linecap="round" class="Up"></path><path d="M590 146L589 -172" stroke-width="10" stroke="url(&quot;#SvgjsLinearGradient1058&quot;)" stroke-linecap="round" class="Up"></path><path d="M841 85L840 396" stroke-width="10" stroke="url(&quot;#SvgjsLinearGradient1059&quot;)" stroke-linecap="round" class="Down"></path><path d="M1200 162L1199 -77" stroke-width="10" stroke="url(&quot;#SvgjsLinearGradient1058&quot;)" stroke-linecap="round" class="Up"></path><path d="M958 492L957 909" stroke-width="10" stroke="url(&quot;#SvgjsLinearGradient1059&quot;)" stroke-linecap="round" class="Down"></path><path d="M281 344L280 -4" stroke-width="10" stroke="url(&quot;#SvgjsLinearGradient1059&quot;)" stroke-linecap="round" class="Down"></path><path d="M1217 63L1216 415" stroke-width="10" stroke="url(&quot;#SvgjsLinearGradient1059&quot;)" stroke-linecap="round" class="Down"></path><path d="M683 110L682 347" stroke-width="6" stroke="url(&quot;#SvgjsLinearGradient1059&quot;)" stroke-linecap="round" class="Down"></path><path d="M42 166L41 490" stroke-width="10" stroke="url(&quot;#SvgjsLinearGradient1058&quot;)" stroke-linecap="round" class="Up"></path><path d="M219 11L218 -242" stroke-width="10" stroke="url(&quot;#SvgjsLinearGradient1059&quot;)" stroke-linecap="round" class="Down"></path><path d="M852 437L851 255" stroke-width="6" stroke="url(&quot;#SvgjsLinearGradient1059&quot;)" stroke-linecap="round" class="Down"></path><path d="M1248 185L1247 -198" stroke-width="8" stroke="url(&quot;#SvgjsLinearGradient1058&quot;)" stroke-linecap="round" class="Up"></path><path d="M317 323L316 520" stroke-width="6" stroke="url(&quot;#SvgjsLinearGradient1059&quot;)" stroke-linecap="round" class="Down"></path><path d="M114 537L113 887" stroke-width="8" stroke="url(&quot;#SvgjsLinearGradient1059&quot;)" stroke-linecap="round" class="Down"></path><path d="M783 282L782 47" stroke-width="10" stroke="url(&quot;#SvgjsLinearGradient1058&quot;)" stroke-linecap="round" class="Up"></path><path d="M939 345L938 585" stroke-width="8" stroke="url(&quot;#SvgjsLinearGradient1059&quot;)" stroke-linecap="round" class="Down"></path><path d="M381 460L380 113" stroke-width="10" stroke="url(&quot;#SvgjsLinearGradient1059&quot;)" stroke-linecap="round" class="Down"></path><path d="M1009 147L1008 443" stroke-width="10" stroke="url(&quot;#SvgjsLinearGradient1059&quot;)" stroke-linecap="round" class="Down"></path><path d="M244 361L243 60" stroke-width="8" stroke="url(&quot;#SvgjsLinearGradient1059&quot;)" stroke-linecap="round" class="Down"></path><path d="M1080 373L1079 118" stroke-width="6" stroke="url(&quot;#SvgjsLinearGradient1059&quot;)" stroke-linecap="round" class="Down"></path><path d="M229 39L228 -163" stroke-width="6" stroke="url(&quot;#SvgjsLinearGradient1059&quot;)" stroke-linecap="round" class="Down"></path></g><defs><mask id="SvgjsMask1057"><rect width="1280" height="560" fill="#ffffff"></rect></mask><linearGradient x1="0%" y1="100%" x2="0%" y2="0%" id="SvgjsLinearGradient1058"><stop stop-color="rgba(239, 156, 0, 0)" offset="0"></stop><stop stop-color="rgba(239, 156, 0, 0.11)" offset="1"></stop></linearGradient><linearGradient x1="0%" y1="0%" x2="0%" y2="100%" id="SvgjsLinearGradient1059"><stop stop-color="rgba(239, 156, 0, 0)" offset="0"></stop><stop stop-color="rgba(239, 156, 0, 0.11)" offset="1"></stop></linearGradient></defs></svg>