<svg xmlns="http://www.w3.org/2000/svg" version="1.1" xmlns:xlink="http://www.w3.org/1999/xlink" xmlns:svgjs="http://svgjs.dev/svgjs" width="1280" height="560" preserveAspectRatio="none" viewBox="0 0 1280 560"><g mask="url(&quot;#SvgjsMask1005&quot;)" fill="none"><rect width="1280" height="560" x="0" y="0" fill="rgba(28, 28, 28, 1)"></rect><path d="M-162.4 432.43C-16.64 429.77 177.4 241.04 388.79 242.03 600.19 243.02 557.34 568.03 664.39 609.7" stroke="rgba(239, 156, 0, 0.16)" stroke-width="2"></path><path d="M-90.75 172.01C44.58 181.87 164.31 422.62 377.55 446.41 590.79 470.2 533.23 649.04 611.7 665.13" stroke="rgba(239, 156, 0, 0.16)" stroke-width="2"></path><path d="M-198.72 177.75C-42.06 181.24 78.22 390.57 388.79 396.15 699.36 401.73 822.29 579.44 976.3 581.62" stroke="rgba(239, 156, 0, 0.16)" stroke-width="2"></path><path d="M-28.8 3.56C108.89 6.56 250.98 165.99 488.13 193.96 725.29 221.93 643.46 516.95 746.6 561.37" stroke="rgba(239, 156, 0, 0.16)" stroke-width="2"></path><path d="M-208.93 392.94C-110 388.85-37 222.84 149.73 224.94 336.46 227.04 382.49 569.03 508.39 601.32" stroke="rgba(239, 156, 0, 0.16)" stroke-width="2"></path></g><defs><mask id="SvgjsMask1005"><rect width="1280" height="560" fill="#ffffff"></rect></mask></defs></svg>