<svg id="visual" viewBox="0 0 900 600" width="900" height="600" xmlns="http://www.w3.org/2000/svg" xmlns:xlink="http://www.w3.org/1999/xlink" version="1.1"><rect x="0" y="0" width="900" height="600" fill="#1c1c1c"></rect><path d="M0 349L10 344.8C20 340.7 40 332.3 60 340.3C80 348.3 100 372.7 120 374.3C140 376 160 355 180 346C200 337 220 340 240 344.7C260 349.3 280 355.7 300 360.2C320 364.7 340 367.3 360 366.2C380 365 400 360 420 361C440 362 460 369 480 378.3C500 387.7 520 399.3 540 397.2C560 395 580 379 600 368.8C620 358.7 640 354.3 660 358C680 361.7 700 373.3 720 380.5C740 387.7 760 390.3 780 391.3C800 392.3 820 391.7 840 393C860 394.3 880 397.7 890 399.3L900 401L900 601L890 601C880 601 860 601 840 601C820 601 800 601 780 601C760 601 740 601 720 601C700 601 680 601 660 601C640 601 620 601 600 601C580 601 560 601 540 601C520 601 500 601 480 601C460 601 440 601 420 601C400 601 380 601 360 601C340 601 320 601 300 601C280 601 260 601 240 601C220 601 200 601 180 601C160 601 140 601 120 601C100 601 80 601 60 601C40 601 20 601 10 601L0 601Z" fill="#262626"></path><path d="M0 366L10 374.8C20 383.7 40 401.3 60 403.7C80 406 100 393 120 394.2C140 395.3 160 410.7 180 408.3C200 406 220 386 240 382.3C260 378.7 280 391.3 300 405.2C320 419 340 434 360 435.3C380 436.7 400 424.3 420 416.3C440 408.3 460 404.7 480 407.8C500 411 520 421 540 417.7C560 414.3 580 397.7 600 391.5C620 385.3 640 389.7 660 390.3C680 391 700 388 720 388.3C740 388.7 760 392.3 780 393.5C800 394.7 820 393.3 840 396.7C860 400 880 408 890 412L900 416L900 601L890 601C880 601 860 601 840 601C820 601 800 601 780 601C760 601 740 601 720 601C700 601 680 601 660 601C640 601 620 601 600 601C580 601 560 601 540 601C520 601 500 601 480 601C460 601 440 601 420 601C400 601 380 601 360 601C340 601 320 601 300 601C280 601 260 601 240 601C220 601 200 601 180 601C160 601 140 601 120 601C100 601 80 601 60 601C40 601 20 601 10 601L0 601Z" fill="#423527"></path><path d="M0 457L10 451.5C20 446 40 435 60 428.2C80 421.3 100 418.7 120 412.3C140 406 160 396 180 399.5C200 403 220 420 240 428.8C260 437.7 280 438.3 300 441.8C320 445.3 340 451.7 360 446.5C380 441.3 400 424.7 420 425C440 425.3 460 442.7 480 445.8C500 449 520 438 540 429.7C560 421.3 580 415.7 600 409.5C620 403.3 640 396.7 660 398.5C680 400.3 700 410.7 720 422.8C740 435 760 449 780 443.3C800 437.7 820 412.3 840 410.2C860 408 880 429 890 439.5L900 450L900 601L890 601C880 601 860 601 840 601C820 601 800 601 780 601C760 601 740 601 720 601C700 601 680 601 660 601C640 601 620 601 600 601C580 601 560 601 540 601C520 601 500 601 480 601C460 601 440 601 420 601C400 601 380 601 360 601C340 601 320 601 300 601C280 601 260 601 240 601C220 601 200 601 180 601C160 601 140 601 120 601C100 601 80 601 60 601C40 601 20 601 10 601L0 601Z" fill="#5d4527"></path><path d="M0 472L10 468.5C20 465 40 458 60 454.3C80 450.7 100 450.3 120 445.7C140 441 160 432 180 429.3C200 426.7 220 430.3 240 442.2C260 454 280 474 300 481.7C320 489.3 340 484.7 360 474.3C380 464 400 448 420 451.5C440 455 460 478 480 489.5C500 501 520 501 540 488.8C560 476.7 580 452.3 600 440.8C620 429.3 640 430.7 660 429C680 427.3 700 422.7 720 420.2C740 417.7 760 417.3 780 423.5C800 429.7 820 442.3 840 454C860 465.7 880 476.3 890 481.7L900 487L900 601L890 601C880 601 860 601 840 601C820 601 800 601 780 601C760 601 740 601 720 601C700 601 680 601 660 601C640 601 620 601 600 601C580 601 560 601 540 601C520 601 500 601 480 601C460 601 440 601 420 601C400 601 380 601 360 601C340 601 320 601 300 601C280 601 260 601 240 601C220 601 200 601 180 601C160 601 140 601 120 601C100 601 80 601 60 601C40 601 20 601 10 601L0 601Z" fill="#795626"></path><path d="M0 511L10 513C20 515 40 519 60 516.2C80 513.3 100 503.7 120 493C140 482.3 160 470.7 180 469.5C200 468.3 220 477.7 240 478.8C260 480 280 473 300 477.8C320 482.7 340 499.3 360 501C380 502.7 400 489.3 420 486.5C440 483.7 460 491.3 480 498.2C500 505 520 511 540 512.3C560 513.7 580 510.3 600 503.5C620 496.7 640 486.3 660 478C680 469.7 700 463.3 720 468.8C740 474.3 760 491.7 780 502.3C800 513 820 517 840 516C860 515 880 509 890 506L900 503L900 601L890 601C880 601 860 601 840 601C820 601 800 601 780 601C760 601 740 601 720 601C700 601 680 601 660 601C640 601 620 601 600 601C580 601 560 601 540 601C520 601 500 601 480 601C460 601 440 601 420 601C400 601 380 601 360 601C340 601 320 601 300 601C280 601 260 601 240 601C220 601 200 601 180 601C160 601 140 601 120 601C100 601 80 601 60 601C40 601 20 601 10 601L0 601Z" fill="#956723"></path><path d="M0 524L10 526.2C20 528.3 40 532.7 60 535C80 537.3 100 537.7 120 532.3C140 527 160 516 180 506.7C200 497.3 220 489.7 240 492.2C260 494.7 280 507.3 300 510.3C320 513.3 340 506.7 360 508.5C380 510.3 400 520.7 420 519.5C440 518.3 460 505.7 480 505.5C500 505.3 520 517.7 540 522.2C560 526.7 580 523.3 600 524.7C620 526 640 532 660 531C680 530 700 522 720 514.7C740 507.3 760 500.7 780 505.2C800 509.7 820 525.3 840 527C860 528.7 880 516.3 890 510.2L900 504L900 601L890 601C880 601 860 601 840 601C820 601 800 601 780 601C760 601 740 601 720 601C700 601 680 601 660 601C640 601 620 601 600 601C580 601 560 601 540 601C520 601 500 601 480 601C460 601 440 601 420 601C400 601 380 601 360 601C340 601 320 601 300 601C280 601 260 601 240 601C220 601 200 601 180 601C160 601 140 601 120 601C100 601 80 601 60 601C40 601 20 601 10 601L0 601Z" fill="#b2781f"></path><path d="M0 522L10 523.3C20 524.7 40 527.3 60 534.5C80 541.7 100 553.3 120 555.2C140 557 160 549 180 540.2C200 531.3 220 521.7 240 521.5C260 521.3 280 530.7 300 533.8C320 537 340 534 360 530.2C380 526.3 400 521.7 420 527.3C440 533 460 549 480 552.3C500 555.7 520 546.3 540 542.2C560 538 580 539 600 544C620 549 640 558 660 557.2C680 556.3 700 545.7 720 539C740 532.3 760 529.7 780 535C800 540.3 820 553.7 840 560.2C860 566.7 880 566.3 890 566.2L900 566L900 601L890 601C880 601 860 601 840 601C820 601 800 601 780 601C760 601 740 601 720 601C700 601 680 601 660 601C640 601 620 601 600 601C580 601 560 601 540 601C520 601 500 601 480 601C460 601 440 601 420 601C400 601 380 601 360 601C340 601 320 601 300 601C280 601 260 601 240 601C220 601 200 601 180 601C160 601 140 601 120 601C100 601 80 601 60 601C40 601 20 601 10 601L0 601Z" fill="#d08a15"></path><path d="M0 586L10 581.2C20 576.3 40 566.7 60 560.8C80 555 100 553 120 556.2C140 559.3 160 567.7 180 567.2C200 566.7 220 557.3 240 554.5C260 551.7 280 555.3 300 561.5C320 567.7 340 576.3 360 580.3C380 584.3 400 583.7 420 577.3C440 571 460 559 480 553.2C500 547.3 520 547.7 540 547C560 546.3 580 544.7 600 548.7C620 552.7 640 562.3 660 563.7C680 565 700 558 720 555.2C740 552.3 760 553.7 780 555.7C800 557.7 820 560.3 840 562.3C860 564.3 880 565.7 890 566.3L900 567L900 601L890 601C880 601 860 601 840 601C820 601 800 601 780 601C760 601 740 601 720 601C700 601 680 601 660 601C640 601 620 601 600 601C580 601 560 601 540 601C520 601 500 601 480 601C460 601 440 601 420 601C400 601 380 601 360 601C340 601 320 601 300 601C280 601 260 601 240 601C220 601 200 601 180 601C160 601 140 601 120 601C100 601 80 601 60 601C40 601 20 601 10 601L0 601Z" fill="#ef9c00"></path></svg>