<svg xmlns="http://www.w3.org/2000/svg" version="1.1" xmlns:xlink="http://www.w3.org/1999/xlink" xmlns:svgjs="http://svgjs.dev/svgjs" width="1280" height="560" preserveAspectRatio="none" viewBox="0 0 1280 560"><g mask="url(&quot;#SvgjsMask1023&quot;)" fill="none"><rect width="1280" height="560" x="0" y="0" fill="rgba(39, 35, 26, 1)"></rect><path d="M0 0L11.17 0L0 159.85z" fill="rgba(255, 255, 255, .1)"></path><path d="M0 159.85L11.17 0L209.91 0L0 381.26z" fill="rgba(255, 255, 255, .075)"></path><path d="M0 381.26L209.91 0L296.42 0L0 452.18z" fill="rgba(255, 255, 255, .05)"></path><path d="M0 452.18L296.42 0L317.95000000000005 0L0 490.1z" fill="rgba(255, 255, 255, .025)"></path><path d="M1280 560L888.6600000000001 560L1280 470.2z" fill="rgba(0, 0, 0, .1)"></path><path d="M1280 470.2L888.6600000000001 560L554.3600000000001 560L1280 250.73999999999998z" fill="rgba(0, 0, 0, .075)"></path><path d="M1280 250.74L554.36 560L402.58000000000004 560L1280 157.55z" fill="rgba(0, 0, 0, .05)"></path><path d="M1280 157.55L402.58000000000004 560L300.49 560L1280 146.61z" fill="rgba(0, 0, 0, .025)"></path></g><defs><mask id="SvgjsMask1023"><rect width="1280" height="560" fill="#ffffff"></rect></mask></defs></svg>