<svg id="visual" viewBox="0 0 900 450" width="900" height="450" xmlns="http://www.w3.org/2000/svg" xmlns:xlink="http://www.w3.org/1999/xlink" version="1.1"><g stroke-width="27" stroke-linejoin="bevel"><path d="M458 224L475 208L469 186Z" fill="#ab721c" stroke="#1c1c1c"></path><path d="M475 208L486 175L469 186Z" fill="#ef9c00" stroke="#1c1c1c"></path><path d="M386 165L395 216L469 186Z" fill="#805820" stroke="#1c1c1c"></path><path d="M469 186L395 216L458 224Z" fill="#6b4b21" stroke="#1c1c1c"></path><path d="M395 216L418 256L458 224Z" fill="#30271e" stroke="#1c1c1c"></path><path d="M486 175L432 130L469 186Z" fill="#1c1c1c" stroke="#1c1c1c"></path><path d="M432 130L386 165L469 186Z" fill="#6b4b21" stroke="#1c1c1c"></path><path d="M418 256L464 283L458 224Z" fill="#805820" stroke="#1c1c1c"></path><path d="M458 224L495 278L475 208Z" fill="#30271e" stroke="#1c1c1c"></path><path d="M475 208L547 187L486 175Z" fill="#ab721c" stroke="#1c1c1c"></path><path d="M386 165L370 184L395 216Z" fill="#c18017" stroke="#1c1c1c"></path><path d="M395 216L363 232L418 256Z" fill="#95651e" stroke="#1c1c1c"></path><path d="M432 130L389 146L386 165Z" fill="#c18017" stroke="#1c1c1c"></path><path d="M386 165L365 145L370 184Z" fill="#805820" stroke="#1c1c1c"></path><path d="M464 283L495 278L458 224Z" fill="#ef9c00" stroke="#1c1c1c"></path><path d="M486 175L478 115L432 130Z" fill="#ab721c" stroke="#1c1c1c"></path><path d="M559 211L547 187L475 208Z" fill="#d88e0f" stroke="#1c1c1c"></path><path d="M486 175L556 128L478 115Z" fill="#573f20" stroke="#1c1c1c"></path><path d="M370 184L363 232L395 216Z" fill="#c18017" stroke="#1c1c1c"></path><path d="M406 303L461 311L464 283Z" fill="#805820" stroke="#1c1c1c"></path><path d="M478 115L430 105L432 130Z" fill="#573f20" stroke="#1c1c1c"></path><path d="M432 130L430 105L389 146Z" fill="#c18017" stroke="#1c1c1c"></path><path d="M414 78L365 145L389 146Z" fill="#ab721c" stroke="#1c1c1c"></path><path d="M389 146L365 145L386 165Z" fill="#573f20" stroke="#1c1c1c"></path><path d="M370 184L329 209L363 232Z" fill="#43331f" stroke="#1c1c1c"></path><path d="M551 266L559 211L475 208Z" fill="#1c1c1c" stroke="#1c1c1c"></path><path d="M464 283L504 298L495 278Z" fill="#805820" stroke="#1c1c1c"></path><path d="M495 278L551 266L475 208Z" fill="#c18017" stroke="#1c1c1c"></path><path d="M406 303L464 283L418 256Z" fill="#ef9c00" stroke="#1c1c1c"></path><path d="M464 283L461 311L504 298Z" fill="#d88e0f" stroke="#1c1c1c"></path><path d="M363 232L371 275L418 256Z" fill="#95651e" stroke="#1c1c1c"></path><path d="M371 275L406 303L418 256Z" fill="#c18017" stroke="#1c1c1c"></path><path d="M504 298L551 266L495 278Z" fill="#1c1c1c" stroke="#1c1c1c"></path><path d="M330 165L329 209L370 184Z" fill="#805820" stroke="#1c1c1c"></path><path d="M363 232L306 253L371 275Z" fill="#30271e" stroke="#1c1c1c"></path><path d="M522 81L494 84L478 115Z" fill="#1c1c1c" stroke="#1c1c1c"></path><path d="M478 115L494 84L430 105Z" fill="#6b4b21" stroke="#1c1c1c"></path><path d="M585 186L556 128L547 187Z" fill="#95651e" stroke="#1c1c1c"></path><path d="M547 187L556 128L486 175Z" fill="#c18017" stroke="#1c1c1c"></path><path d="M295 129L330 165L365 145Z" fill="#ab721c" stroke="#1c1c1c"></path><path d="M365 145L330 165L370 184Z" fill="#573f20" stroke="#1c1c1c"></path><path d="M506 368L529 308L504 298Z" fill="#95651e" stroke="#1c1c1c"></path><path d="M504 298L529 308L551 266Z" fill="#1c1c1c" stroke="#1c1c1c"></path><path d="M435 41L414 78L430 105Z" fill="#c18017" stroke="#1c1c1c"></path><path d="M430 105L414 78L389 146Z" fill="#95651e" stroke="#1c1c1c"></path><path d="M371 275L375 308L406 303Z" fill="#95651e" stroke="#1c1c1c"></path><path d="M406 303L430 342L461 311Z" fill="#d88e0f" stroke="#1c1c1c"></path><path d="M322 332L375 308L371 275Z" fill="#6b4b21" stroke="#1c1c1c"></path><path d="M586 240L585 186L559 211Z" fill="#ab721c" stroke="#1c1c1c"></path><path d="M559 211L585 186L547 187Z" fill="#95651e" stroke="#1c1c1c"></path><path d="M590 263L586 240L551 266Z" fill="#6b4b21" stroke="#1c1c1c"></path><path d="M551 266L586 240L559 211Z" fill="#30271e" stroke="#1c1c1c"></path><path d="M556 128L522 81L478 115Z" fill="#805820" stroke="#1c1c1c"></path><path d="M494 84L479 49L430 105Z" fill="#ef9c00" stroke="#1c1c1c"></path><path d="M363 340L430 342L406 303Z" fill="#1c1c1c" stroke="#1c1c1c"></path><path d="M461 311L506 368L504 298Z" fill="#d88e0f" stroke="#1c1c1c"></path><path d="M569 327L590 263L551 266Z" fill="#6b4b21" stroke="#1c1c1c"></path><path d="M640 196L604 148L585 186Z" fill="#1c1c1c" stroke="#1c1c1c"></path><path d="M522 81L479 49L494 84Z" fill="#43331f" stroke="#1c1c1c"></path><path d="M275 197L306 253L329 209Z" fill="#d88e0f" stroke="#1c1c1c"></path><path d="M329 209L306 253L363 232Z" fill="#30271e" stroke="#1c1c1c"></path><path d="M585 186L604 148L556 128Z" fill="#ef9c00" stroke="#1c1c1c"></path><path d="M556 128L569 74L522 81Z" fill="#c18017" stroke="#1c1c1c"></path><path d="M619 214L585 186L586 240Z" fill="#ef9c00" stroke="#1c1c1c"></path><path d="M435 41L424 43L414 78Z" fill="#ef9c00" stroke="#1c1c1c"></path><path d="M414 78L343 72L365 145Z" fill="#805820" stroke="#1c1c1c"></path><path d="M479 49L435 41L430 105Z" fill="#1c1c1c" stroke="#1c1c1c"></path><path d="M322 332L363 340L375 308Z" fill="#805820" stroke="#1c1c1c"></path><path d="M375 308L363 340L406 303Z" fill="#30271e" stroke="#1c1c1c"></path><path d="M631 263L619 214L586 240Z" fill="#6b4b21" stroke="#1c1c1c"></path><path d="M363 340L418 368L430 342Z" fill="#6b4b21" stroke="#1c1c1c"></path><path d="M430 342L506 368L461 311Z" fill="#30271e" stroke="#1c1c1c"></path><path d="M534 372L569 327L529 308Z" fill="#30271e" stroke="#1c1c1c"></path><path d="M529 308L569 327L551 266Z" fill="#30271e" stroke="#1c1c1c"></path><path d="M631 263L640 196L619 214Z" fill="#43331f" stroke="#1c1c1c"></path><path d="M372 30L343 72L414 78Z" fill="#ab721c" stroke="#1c1c1c"></path><path d="M330 165L275 197L329 209Z" fill="#95651e" stroke="#1c1c1c"></path><path d="M640 196L614 141L604 148Z" fill="#805820" stroke="#1c1c1c"></path><path d="M604 148L614 141L556 128Z" fill="#6b4b21" stroke="#1c1c1c"></path><path d="M522 81L549 38L479 49Z" fill="#95651e" stroke="#1c1c1c"></path><path d="M614 141L569 74L556 128Z" fill="#c18017" stroke="#1c1c1c"></path><path d="M484 397L506 368L430 342Z" fill="#1c1c1c" stroke="#1c1c1c"></path><path d="M312 82L295 129L365 145Z" fill="#573f20" stroke="#1c1c1c"></path><path d="M295 129L275 197L330 165Z" fill="#805820" stroke="#1c1c1c"></path><path d="M270 287L322 332L306 253Z" fill="#ab721c" stroke="#1c1c1c"></path><path d="M306 253L322 332L371 275Z" fill="#805820" stroke="#1c1c1c"></path><path d="M368 417L416 395L418 368Z" fill="#d88e0f" stroke="#1c1c1c"></path><path d="M343 72L312 82L365 145Z" fill="#ab721c" stroke="#1c1c1c"></path><path d="M309 63L312 82L343 72Z" fill="#ef9c00" stroke="#1c1c1c"></path><path d="M631 263L586 240L590 263Z" fill="#ef9c00" stroke="#1c1c1c"></path><path d="M619 214L640 196L585 186Z" fill="#43331f" stroke="#1c1c1c"></path><path d="M644 328L631 263L590 263Z" fill="#573f20" stroke="#1c1c1c"></path><path d="M506 368L534 372L529 308Z" fill="#573f20" stroke="#1c1c1c"></path><path d="M569 327L593 344L590 263Z" fill="#30271e" stroke="#1c1c1c"></path><path d="M484 397L534 372L506 368Z" fill="#c18017" stroke="#1c1c1c"></path><path d="M275 197L268 235L306 253Z" fill="#1c1c1c" stroke="#1c1c1c"></path><path d="M601 46L549 38L569 74Z" fill="#95651e" stroke="#1c1c1c"></path><path d="M569 74L549 38L522 81Z" fill="#c18017" stroke="#1c1c1c"></path><path d="M479 49L451 0L435 41Z" fill="#43331f" stroke="#1c1c1c"></path><path d="M424 0L372 30L424 43Z" fill="#43331f" stroke="#1c1c1c"></path><path d="M424 43L372 30L414 78Z" fill="#95651e" stroke="#1c1c1c"></path><path d="M424 0L424 43L435 41Z" fill="#c18017" stroke="#1c1c1c"></path><path d="M368 417L418 368L363 340Z" fill="#573f20" stroke="#1c1c1c"></path><path d="M418 368L484 397L430 342Z" fill="#d88e0f" stroke="#1c1c1c"></path><path d="M449 415L484 397L418 368Z" fill="#c18017" stroke="#1c1c1c"></path><path d="M644 328L593 344L614 370Z" fill="#6b4b21" stroke="#1c1c1c"></path><path d="M534 372L593 344L569 327Z" fill="#95651e" stroke="#1c1c1c"></path><path d="M372 30L309 63L343 72Z" fill="#805820" stroke="#1c1c1c"></path><path d="M312 82L283 91L295 129Z" fill="#ab721c" stroke="#1c1c1c"></path><path d="M295 129L259 116L275 197Z" fill="#ab721c" stroke="#1c1c1c"></path><path d="M512 0L451 0L479 49Z" fill="#30271e" stroke="#1c1c1c"></path><path d="M268 235L270 287L306 253Z" fill="#6b4b21" stroke="#1c1c1c"></path><path d="M309 63L283 91L312 82Z" fill="#c18017" stroke="#1c1c1c"></path><path d="M275 197L227 222L268 235Z" fill="#95651e" stroke="#1c1c1c"></path><path d="M451 0L424 0L435 41Z" fill="#805820" stroke="#1c1c1c"></path><path d="M372 30L295 0L309 63Z" fill="#ef9c00" stroke="#1c1c1c"></path><path d="M549 38L512 0L479 49Z" fill="#30271e" stroke="#1c1c1c"></path><path d="M236 87L259 116L283 91Z" fill="#30271e" stroke="#1c1c1c"></path><path d="M283 91L259 116L295 129Z" fill="#95651e" stroke="#1c1c1c"></path><path d="M211 269L230 297L270 287Z" fill="#ab721c" stroke="#1c1c1c"></path><path d="M416 395L449 415L418 368Z" fill="#95651e" stroke="#1c1c1c"></path><path d="M614 370L593 344L597 404Z" fill="#30271e" stroke="#1c1c1c"></path><path d="M569 0L526 0L549 38Z" fill="#30271e" stroke="#1c1c1c"></path><path d="M549 38L526 0L512 0Z" fill="#c18017" stroke="#1c1c1c"></path><path d="M645 86L601 46L569 74Z" fill="#30271e" stroke="#1c1c1c"></path><path d="M645 86L569 74L614 141Z" fill="#805820" stroke="#1c1c1c"></path><path d="M424 0L364 0L372 30Z" fill="#573f20" stroke="#1c1c1c"></path><path d="M262 39L236 87L283 91Z" fill="#30271e" stroke="#1c1c1c"></path><path d="M666 117L645 86L614 141Z" fill="#1c1c1c" stroke="#1c1c1c"></path><path d="M672 272L680 205L631 263Z" fill="#c18017" stroke="#1c1c1c"></path><path d="M631 263L680 205L640 196Z" fill="#ef9c00" stroke="#1c1c1c"></path><path d="M685 182L666 117L614 141Z" fill="#30271e" stroke="#1c1c1c"></path><path d="M212 192L227 222L275 197Z" fill="#43331f" stroke="#1c1c1c"></path><path d="M593 344L534 372L597 404Z" fill="#c18017" stroke="#1c1c1c"></path><path d="M593 344L644 328L590 263Z" fill="#1c1c1c" stroke="#1c1c1c"></path><path d="M685 182L614 141L640 196Z" fill="#ef9c00" stroke="#1c1c1c"></path><path d="M676 297L672 272L631 263Z" fill="#43331f" stroke="#1c1c1c"></path><path d="M324 399L363 340L322 332Z" fill="#d88e0f" stroke="#1c1c1c"></path><path d="M324 399L368 417L363 340Z" fill="#30271e" stroke="#1c1c1c"></path><path d="M413 450L446 450L449 415Z" fill="#573f20" stroke="#1c1c1c"></path><path d="M548 415L534 372L484 397Z" fill="#ef9c00" stroke="#1c1c1c"></path><path d="M729 199L685 182L680 205Z" fill="#805820" stroke="#1c1c1c"></path><path d="M680 205L685 182L640 196Z" fill="#30271e" stroke="#1c1c1c"></path><path d="M262 346L301 378L322 332Z" fill="#30271e" stroke="#1c1c1c"></path><path d="M252 323L322 332L270 287Z" fill="#43331f" stroke="#1c1c1c"></path><path d="M619 0L569 0L601 46Z" fill="#805820" stroke="#1c1c1c"></path><path d="M601 46L569 0L549 38Z" fill="#ab721c" stroke="#1c1c1c"></path><path d="M504 450L548 415L484 397Z" fill="#1c1c1c" stroke="#1c1c1c"></path><path d="M504 450L484 397L449 415Z" fill="#1c1c1c" stroke="#1c1c1c"></path><path d="M230 297L252 323L270 287Z" fill="#95651e" stroke="#1c1c1c"></path><path d="M301 378L324 399L322 332Z" fill="#30271e" stroke="#1c1c1c"></path><path d="M671 51L633 48L645 86Z" fill="#805820" stroke="#1c1c1c"></path><path d="M645 86L633 48L601 46Z" fill="#1c1c1c" stroke="#1c1c1c"></path><path d="M252 323L262 346L322 332Z" fill="#573f20" stroke="#1c1c1c"></path><path d="M314 450L350 450L324 399Z" fill="#30271e" stroke="#1c1c1c"></path><path d="M210 140L212 192L275 197Z" fill="#30271e" stroke="#1c1c1c"></path><path d="M211 269L270 287L268 235Z" fill="#ab721c" stroke="#1c1c1c"></path><path d="M700 378L676 297L644 328Z" fill="#573f20" stroke="#1c1c1c"></path><path d="M644 328L676 297L631 263Z" fill="#95651e" stroke="#1c1c1c"></path><path d="M672 272L708 239L680 205Z" fill="#c18017" stroke="#1c1c1c"></path><path d="M211 269L268 235L227 222Z" fill="#ab721c" stroke="#1c1c1c"></path><path d="M252 323L211 374L262 346Z" fill="#30271e" stroke="#1c1c1c"></path><path d="M262 39L283 91L309 63Z" fill="#1c1c1c" stroke="#1c1c1c"></path><path d="M259 116L210 140L275 197Z" fill="#30271e" stroke="#1c1c1c"></path><path d="M548 415L597 404L534 372Z" fill="#c18017" stroke="#1c1c1c"></path><path d="M614 370L657 378L644 328Z" fill="#6b4b21" stroke="#1c1c1c"></path><path d="M413 450L416 395L368 417Z" fill="#95651e" stroke="#1c1c1c"></path><path d="M413 450L449 415L416 395Z" fill="#c18017" stroke="#1c1c1c"></path><path d="M548 415L583 450L597 404Z" fill="#c18017" stroke="#1c1c1c"></path><path d="M236 87L210 140L259 116Z" fill="#805820" stroke="#1c1c1c"></path><path d="M350 450L413 450L368 417Z" fill="#43331f" stroke="#1c1c1c"></path><path d="M295 0L262 39L309 63Z" fill="#ab721c" stroke="#1c1c1c"></path><path d="M198 199L227 222L212 192Z" fill="#c18017" stroke="#1c1c1c"></path><path d="M169 255L211 269L227 222Z" fill="#1c1c1c" stroke="#1c1c1c"></path><path d="M211 374L285 418L262 346Z" fill="#30271e" stroke="#1c1c1c"></path><path d="M446 450L504 450L449 415Z" fill="#1c1c1c" stroke="#1c1c1c"></path><path d="M170 152L198 199L212 192Z" fill="#ab721c" stroke="#1c1c1c"></path><path d="M702 127L678 79L666 117Z" fill="#30271e" stroke="#1c1c1c"></path><path d="M666 117L678 79L645 86Z" fill="#ab721c" stroke="#1c1c1c"></path><path d="M633 48L619 0L601 46Z" fill="#ab721c" stroke="#1c1c1c"></path><path d="M364 0L295 0L372 30Z" fill="#43331f" stroke="#1c1c1c"></path><path d="M735 264L708 239L672 272Z" fill="#6b4b21" stroke="#1c1c1c"></path><path d="M685 182L702 127L666 117Z" fill="#c18017" stroke="#1c1c1c"></path><path d="M729 199L702 127L685 182Z" fill="#43331f" stroke="#1c1c1c"></path><path d="M674 0L619 0L633 48Z" fill="#ef9c00" stroke="#1c1c1c"></path><path d="M504 450L544 450L548 415Z" fill="#573f20" stroke="#1c1c1c"></path><path d="M674 0L671 51L700 0Z" fill="#805820" stroke="#1c1c1c"></path><path d="M678 79L671 51L645 86Z" fill="#805820" stroke="#1c1c1c"></path><path d="M634 450L639 396L597 404Z" fill="#805820" stroke="#1c1c1c"></path><path d="M597 404L639 396L614 370Z" fill="#573f20" stroke="#1c1c1c"></path><path d="M676 297L735 264L672 272Z" fill="#ab721c" stroke="#1c1c1c"></path><path d="M285 418L324 399L301 378Z" fill="#6b4b21" stroke="#1c1c1c"></path><path d="M324 399L350 450L368 417Z" fill="#573f20" stroke="#1c1c1c"></path><path d="M295 0L276 0L262 39Z" fill="#95651e" stroke="#1c1c1c"></path><path d="M262 39L224 48L236 87Z" fill="#1c1c1c" stroke="#1c1c1c"></path><path d="M166 74L170 152L210 140Z" fill="#ab721c" stroke="#1c1c1c"></path><path d="M639 396L657 378L614 370Z" fill="#805820" stroke="#1c1c1c"></path><path d="M262 346L285 418L301 378Z" fill="#1c1c1c" stroke="#1c1c1c"></path><path d="M188 318L252 323L230 297Z" fill="#805820" stroke="#1c1c1c"></path><path d="M708 239L729 199L680 205Z" fill="#6b4b21" stroke="#1c1c1c"></path><path d="M735 264L729 199L708 239Z" fill="#c18017" stroke="#1c1c1c"></path><path d="M234 0L224 48L262 39Z" fill="#43331f" stroke="#1c1c1c"></path><path d="M210 140L170 152L212 192Z" fill="#6b4b21" stroke="#1c1c1c"></path><path d="M544 450L583 450L548 415Z" fill="#1c1c1c" stroke="#1c1c1c"></path><path d="M285 418L314 450L324 399Z" fill="#573f20" stroke="#1c1c1c"></path><path d="M166 74L210 140L236 87Z" fill="#573f20" stroke="#1c1c1c"></path><path d="M198 199L169 255L227 222Z" fill="#c18017" stroke="#1c1c1c"></path><path d="M731 303L735 264L676 297Z" fill="#573f20" stroke="#1c1c1c"></path><path d="M160 242L169 255L198 199Z" fill="#95651e" stroke="#1c1c1c"></path><path d="M211 269L188 318L230 297Z" fill="#ef9c00" stroke="#1c1c1c"></path><path d="M169 255L188 318L211 269Z" fill="#ef9c00" stroke="#1c1c1c"></path><path d="M285 418L262 450L314 450Z" fill="#6b4b21" stroke="#1c1c1c"></path><path d="M700 378L731 303L676 297Z" fill="#ab721c" stroke="#1c1c1c"></path><path d="M127 231L160 242L198 199Z" fill="#43331f" stroke="#1c1c1c"></path><path d="M169 255L149 289L188 318Z" fill="#95651e" stroke="#1c1c1c"></path><path d="M188 318L211 374L252 323Z" fill="#d88e0f" stroke="#1c1c1c"></path><path d="M276 0L234 0L262 39Z" fill="#1c1c1c" stroke="#1c1c1c"></path><path d="M224 48L166 74L236 87Z" fill="#30271e" stroke="#1c1c1c"></path><path d="M736 52L671 51L678 79Z" fill="#6b4b21" stroke="#1c1c1c"></path><path d="M671 51L674 0L633 48Z" fill="#d88e0f" stroke="#1c1c1c"></path><path d="M727 81L678 79L702 127Z" fill="#ab721c" stroke="#1c1c1c"></path><path d="M769 96L727 81L702 127Z" fill="#95651e" stroke="#1c1c1c"></path><path d="M778 151L702 127L729 199Z" fill="#ef9c00" stroke="#1c1c1c"></path><path d="M675 410L700 378L657 378Z" fill="#ef9c00" stroke="#1c1c1c"></path><path d="M657 378L700 378L644 328Z" fill="#ab721c" stroke="#1c1c1c"></path><path d="M675 410L657 378L639 396Z" fill="#ab721c" stroke="#1c1c1c"></path><path d="M234 0L198 38L224 48Z" fill="#d88e0f" stroke="#1c1c1c"></path><path d="M634 450L675 410L639 396Z" fill="#1c1c1c" stroke="#1c1c1c"></path><path d="M583 450L634 450L597 404Z" fill="#43331f" stroke="#1c1c1c"></path><path d="M166 74L145 148L170 152Z" fill="#30271e" stroke="#1c1c1c"></path><path d="M170 152L127 231L198 199Z" fill="#573f20" stroke="#1c1c1c"></path><path d="M209 399L262 450L285 418Z" fill="#6b4b21" stroke="#1c1c1c"></path><path d="M199 388L209 399L211 374Z" fill="#1c1c1c" stroke="#1c1c1c"></path><path d="M211 374L209 399L285 418Z" fill="#573f20" stroke="#1c1c1c"></path><path d="M199 388L211 374L169 344Z" fill="#ab721c" stroke="#1c1c1c"></path><path d="M198 38L166 74L224 48Z" fill="#c18017" stroke="#1c1c1c"></path><path d="M169 344L211 374L188 318Z" fill="#ef9c00" stroke="#1c1c1c"></path><path d="M127 231L149 289L160 242Z" fill="#ef9c00" stroke="#1c1c1c"></path><path d="M160 242L149 289L169 255Z" fill="#c18017" stroke="#1c1c1c"></path><path d="M784 238L729 199L735 264Z" fill="#d88e0f" stroke="#1c1c1c"></path><path d="M784 238L771 194L729 199Z" fill="#c18017" stroke="#1c1c1c"></path><path d="M139 313L169 344L188 318Z" fill="#43331f" stroke="#1c1c1c"></path><path d="M736 52L678 79L727 81Z" fill="#30271e" stroke="#1c1c1c"></path><path d="M736 52L700 0L671 51Z" fill="#95651e" stroke="#1c1c1c"></path><path d="M769 96L736 52L727 81Z" fill="#805820" stroke="#1c1c1c"></path><path d="M700 378L748 342L731 303Z" fill="#573f20" stroke="#1c1c1c"></path><path d="M731 303L778 264L735 264Z" fill="#30271e" stroke="#1c1c1c"></path><path d="M720 390L748 342L700 378Z" fill="#43331f" stroke="#1c1c1c"></path><path d="M720 390L700 378L675 410Z" fill="#ef9c00" stroke="#1c1c1c"></path><path d="M731 450L720 390L675 410Z" fill="#573f20" stroke="#1c1c1c"></path><path d="M115 167L127 231L170 152Z" fill="#6b4b21" stroke="#1c1c1c"></path><path d="M149 289L139 313L188 318Z" fill="#ab721c" stroke="#1c1c1c"></path><path d="M634 450L668 450L675 410Z" fill="#6b4b21" stroke="#1c1c1c"></path><path d="M811 194L778 151L771 194Z" fill="#d88e0f" stroke="#1c1c1c"></path><path d="M771 194L778 151L729 199Z" fill="#6b4b21" stroke="#1c1c1c"></path><path d="M777 330L778 264L731 303Z" fill="#43331f" stroke="#1c1c1c"></path><path d="M778 264L784 238L735 264Z" fill="#43331f" stroke="#1c1c1c"></path><path d="M778 151L769 96L702 127Z" fill="#43331f" stroke="#1c1c1c"></path><path d="M736 52L778 0L700 0Z" fill="#ab721c" stroke="#1c1c1c"></path><path d="M100 284L139 313L149 289Z" fill="#573f20" stroke="#1c1c1c"></path><path d="M169 344L148 403L199 388Z" fill="#6b4b21" stroke="#1c1c1c"></path><path d="M139 313L150 346L169 344Z" fill="#573f20" stroke="#1c1c1c"></path><path d="M176 450L222 450L209 399Z" fill="#ab721c" stroke="#1c1c1c"></path><path d="M209 399L222 450L262 450Z" fill="#573f20" stroke="#1c1c1c"></path><path d="M234 0L185 0L198 38Z" fill="#ab721c" stroke="#1c1c1c"></path><path d="M142 0L128 62L166 74Z" fill="#c18017" stroke="#1c1c1c"></path><path d="M99 120L115 167L145 148Z" fill="#573f20" stroke="#1c1c1c"></path><path d="M148 403L209 399L199 388Z" fill="#c18017" stroke="#1c1c1c"></path><path d="M120 107L145 148L166 74Z" fill="#95651e" stroke="#1c1c1c"></path><path d="M145 148L115 167L170 152Z" fill="#d88e0f" stroke="#1c1c1c"></path><path d="M127 231L100 284L149 289Z" fill="#805820" stroke="#1c1c1c"></path><path d="M128 62L120 107L166 74Z" fill="#43331f" stroke="#1c1c1c"></path><path d="M778 409L777 330L748 342Z" fill="#805820" stroke="#1c1c1c"></path><path d="M748 342L777 330L731 303Z" fill="#d88e0f" stroke="#1c1c1c"></path><path d="M816 232L811 194L784 238Z" fill="#c18017" stroke="#1c1c1c"></path><path d="M795 329L777 330L825 368Z" fill="#1c1c1c" stroke="#1c1c1c"></path><path d="M142 0L166 74L198 38Z" fill="#573f20" stroke="#1c1c1c"></path><path d="M784 238L811 194L771 194Z" fill="#6b4b21" stroke="#1c1c1c"></path><path d="M778 151L826 153L769 96Z" fill="#805820" stroke="#1c1c1c"></path><path d="M809 256L784 238L778 264Z" fill="#95651e" stroke="#1c1c1c"></path><path d="M818 78L773 41L769 96Z" fill="#ef9c00" stroke="#1c1c1c"></path><path d="M769 96L773 41L736 52Z" fill="#ab721c" stroke="#1c1c1c"></path><path d="M99 120L145 148L120 107Z" fill="#ab721c" stroke="#1c1c1c"></path><path d="M99 120L95 181L115 167Z" fill="#ab721c" stroke="#1c1c1c"></path><path d="M115 167L95 181L127 231Z" fill="#43331f" stroke="#1c1c1c"></path><path d="M795 329L809 256L778 264Z" fill="#ab721c" stroke="#1c1c1c"></path><path d="M72 244L100 284L127 231Z" fill="#ab721c" stroke="#1c1c1c"></path><path d="M139 313L103 328L150 346Z" fill="#805820" stroke="#1c1c1c"></path><path d="M150 346L148 403L169 344Z" fill="#1c1c1c" stroke="#1c1c1c"></path><path d="M86 104L99 120L120 107Z" fill="#43331f" stroke="#1c1c1c"></path><path d="M809 256L816 232L784 238Z" fill="#ab721c" stroke="#1c1c1c"></path><path d="M778 409L748 342L720 390Z" fill="#43331f" stroke="#1c1c1c"></path><path d="M777 330L795 329L778 264Z" fill="#c18017" stroke="#1c1c1c"></path><path d="M809 256L838 281L816 232Z" fill="#573f20" stroke="#1c1c1c"></path><path d="M90 387L148 403L150 346Z" fill="#6b4b21" stroke="#1c1c1c"></path><path d="M185 0L142 0L198 38Z" fill="#6b4b21" stroke="#1c1c1c"></path><path d="M128 62L86 104L120 107Z" fill="#1c1c1c" stroke="#1c1c1c"></path><path d="M148 403L176 450L209 399Z" fill="#95651e" stroke="#1c1c1c"></path><path d="M668 450L731 450L675 410Z" fill="#95651e" stroke="#1c1c1c"></path><path d="M100 284L103 328L139 313Z" fill="#d88e0f" stroke="#1c1c1c"></path><path d="M148 403L139 450L176 450Z" fill="#30271e" stroke="#1c1c1c"></path><path d="M866 183L826 153L811 194Z" fill="#30271e" stroke="#1c1c1c"></path><path d="M811 194L826 153L778 151Z" fill="#ef9c00" stroke="#1c1c1c"></path><path d="M62 90L86 104L71 52Z" fill="#1c1c1c" stroke="#1c1c1c"></path><path d="M99 120L59 172L95 181Z" fill="#95651e" stroke="#1c1c1c"></path><path d="M95 181L72 244L127 231Z" fill="#805820" stroke="#1c1c1c"></path><path d="M58 350L78 354L103 328Z" fill="#30271e" stroke="#1c1c1c"></path><path d="M811 32L778 0L773 41Z" fill="#1c1c1c" stroke="#1c1c1c"></path><path d="M773 41L778 0L736 52Z" fill="#95651e" stroke="#1c1c1c"></path><path d="M59 219L72 244L95 181Z" fill="#573f20" stroke="#1c1c1c"></path><path d="M755 450L778 409L720 390Z" fill="#d88e0f" stroke="#1c1c1c"></path><path d="M795 329L838 281L809 256Z" fill="#1c1c1c" stroke="#1c1c1c"></path><path d="M826 153L818 78L769 96Z" fill="#43331f" stroke="#1c1c1c"></path><path d="M731 450L755 450L720 390Z" fill="#c18017" stroke="#1c1c1c"></path><path d="M859 322L838 281L795 329Z" fill="#6b4b21" stroke="#1c1c1c"></path><path d="M816 232L863 219L811 194Z" fill="#95651e" stroke="#1c1c1c"></path><path d="M59 172L59 219L95 181Z" fill="#95651e" stroke="#1c1c1c"></path><path d="M58 350L103 328L43 323Z" fill="#6b4b21" stroke="#1c1c1c"></path><path d="M34 117L59 172L99 120Z" fill="#30271e" stroke="#1c1c1c"></path><path d="M818 78L811 32L773 41Z" fill="#d88e0f" stroke="#1c1c1c"></path><path d="M90 387L150 346L103 328Z" fill="#43331f" stroke="#1c1c1c"></path><path d="M90 387L139 450L148 403Z" fill="#c18017" stroke="#1c1c1c"></path><path d="M811 32L804 0L778 0Z" fill="#c18017" stroke="#1c1c1c"></path><path d="M103 328L100 284L43 323Z" fill="#805820" stroke="#1c1c1c"></path><path d="M809 407L825 368L778 409Z" fill="#d88e0f" stroke="#1c1c1c"></path><path d="M778 409L825 368L777 330Z" fill="#6b4b21" stroke="#1c1c1c"></path><path d="M71 52L86 104L128 62Z" fill="#30271e" stroke="#1c1c1c"></path><path d="M86 104L34 117L99 120Z" fill="#c18017" stroke="#1c1c1c"></path><path d="M78 354L90 387L103 328Z" fill="#c18017" stroke="#1c1c1c"></path><path d="M900 215L863 219L900 269Z" fill="#ab721c" stroke="#1c1c1c"></path><path d="M838 281L863 219L816 232Z" fill="#95651e" stroke="#1c1c1c"></path><path d="M826 153L863 98L818 78Z" fill="#ef9c00" stroke="#1c1c1c"></path><path d="M818 78L865 31L811 32Z" fill="#43331f" stroke="#1c1c1c"></path><path d="M811 32L845 0L804 0Z" fill="#d88e0f" stroke="#1c1c1c"></path><path d="M793 450L809 407L778 409Z" fill="#573f20" stroke="#1c1c1c"></path><path d="M91 0L71 52L128 62Z" fill="#1c1c1c" stroke="#1c1c1c"></path><path d="M863 219L866 183L811 194Z" fill="#1c1c1c" stroke="#1c1c1c"></path><path d="M142 0L91 0L128 62Z" fill="#95651e" stroke="#1c1c1c"></path><path d="M866 183L867 130L826 153Z" fill="#1c1c1c" stroke="#1c1c1c"></path><path d="M755 450L793 450L778 409Z" fill="#d88e0f" stroke="#1c1c1c"></path><path d="M860 365L859 322L825 368Z" fill="#ab721c" stroke="#1c1c1c"></path><path d="M43 323L100 284L31 287Z" fill="#d88e0f" stroke="#1c1c1c"></path><path d="M78 354L58 350L90 387Z" fill="#ef9c00" stroke="#1c1c1c"></path><path d="M90 387L79 450L139 450Z" fill="#805820" stroke="#1c1c1c"></path><path d="M100 284L72 244L31 287Z" fill="#d88e0f" stroke="#1c1c1c"></path><path d="M867 130L863 98L826 153Z" fill="#573f20" stroke="#1c1c1c"></path><path d="M825 368L859 322L795 329Z" fill="#43331f" stroke="#1c1c1c"></path><path d="M863 219L900 215L866 183Z" fill="#6b4b21" stroke="#1c1c1c"></path><path d="M860 365L825 368L857 413Z" fill="#d88e0f" stroke="#1c1c1c"></path><path d="M0 173L59 219L59 172Z" fill="#ef9c00" stroke="#1c1c1c"></path><path d="M31 287L72 244L0 256Z" fill="#1c1c1c" stroke="#1c1c1c"></path><path d="M0 83L34 117L62 90Z" fill="#ef9c00" stroke="#1c1c1c"></path><path d="M62 90L34 117L86 104Z" fill="#43331f" stroke="#1c1c1c"></path><path d="M43 35L62 90L71 52Z" fill="#ef9c00" stroke="#1c1c1c"></path><path d="M0 244L72 244L59 219Z" fill="#95651e" stroke="#1c1c1c"></path><path d="M857 413L825 368L809 407Z" fill="#ab721c" stroke="#1c1c1c"></path><path d="M900 269L863 219L838 281Z" fill="#ef9c00" stroke="#1c1c1c"></path><path d="M865 31L845 0L811 32Z" fill="#43331f" stroke="#1c1c1c"></path><path d="M91 0L60 0L71 52Z" fill="#c18017" stroke="#1c1c1c"></path><path d="M60 0L43 35L71 52Z" fill="#ef9c00" stroke="#1c1c1c"></path><path d="M863 98L865 31L818 78Z" fill="#805820" stroke="#1c1c1c"></path><path d="M900 84L865 31L863 98Z" fill="#d88e0f" stroke="#1c1c1c"></path><path d="M900 269L838 281L859 322Z" fill="#95651e" stroke="#1c1c1c"></path><path d="M866 183L900 160L867 130Z" fill="#573f20" stroke="#1c1c1c"></path><path d="M867 130L900 84L863 98Z" fill="#95651e" stroke="#1c1c1c"></path><path d="M0 360L56 408L58 350Z" fill="#43331f" stroke="#1c1c1c"></path><path d="M58 350L56 408L90 387Z" fill="#ab721c" stroke="#1c1c1c"></path><path d="M0 360L58 350L43 323Z" fill="#573f20" stroke="#1c1c1c"></path><path d="M900 215L900 160L866 183Z" fill="#ab721c" stroke="#1c1c1c"></path><path d="M56 408L79 450L90 387Z" fill="#6b4b21" stroke="#1c1c1c"></path><path d="M900 160L900 149L867 130Z" fill="#573f20" stroke="#1c1c1c"></path><path d="M900 330L900 269L859 322Z" fill="#95651e" stroke="#1c1c1c"></path><path d="M0 151L59 172L34 117Z" fill="#1c1c1c" stroke="#1c1c1c"></path><path d="M0 151L0 173L59 172Z" fill="#573f20" stroke="#1c1c1c"></path><path d="M31 287L0 299L43 323Z" fill="#ef9c00" stroke="#1c1c1c"></path><path d="M0 173L0 244L59 219Z" fill="#ab721c" stroke="#1c1c1c"></path><path d="M859 450L857 413L809 407Z" fill="#1c1c1c" stroke="#1c1c1c"></path><path d="M860 365L900 330L859 322Z" fill="#d88e0f" stroke="#1c1c1c"></path><path d="M0 83L0 151L34 117Z" fill="#ef9c00" stroke="#1c1c1c"></path><path d="M0 244L0 256L72 244Z" fill="#1c1c1c" stroke="#1c1c1c"></path><path d="M900 149L900 84L867 130Z" fill="#ef9c00" stroke="#1c1c1c"></path><path d="M865 31L900 0L845 0Z" fill="#95651e" stroke="#1c1c1c"></path><path d="M0 256L0 299L31 287Z" fill="#ab721c" stroke="#1c1c1c"></path><path d="M900 365L900 330L860 365Z" fill="#6b4b21" stroke="#1c1c1c"></path><path d="M0 57L0 83L62 90Z" fill="#573f20" stroke="#1c1c1c"></path><path d="M0 57L62 90L43 35Z" fill="#ef9c00" stroke="#1c1c1c"></path><path d="M793 450L859 450L809 407Z" fill="#805820" stroke="#1c1c1c"></path><path d="M857 413L900 365L860 365Z" fill="#30271e" stroke="#1c1c1c"></path><path d="M900 421L900 365L857 413Z" fill="#d88e0f" stroke="#1c1c1c"></path><path d="M0 0L0 57L43 35Z" fill="#95651e" stroke="#1c1c1c"></path><path d="M0 299L0 360L43 323Z" fill="#95651e" stroke="#1c1c1c"></path><path d="M56 408L39 450L79 450Z" fill="#1c1c1c" stroke="#1c1c1c"></path><path d="M900 84L900 25L865 31Z" fill="#ab721c" stroke="#1c1c1c"></path><path d="M0 409L39 450L56 408Z" fill="#6b4b21" stroke="#1c1c1c"></path><path d="M900 25L900 0L865 31Z" fill="#573f20" stroke="#1c1c1c"></path><path d="M60 0L0 0L43 35Z" fill="#805820" stroke="#1c1c1c"></path><path d="M859 450L900 421L857 413Z" fill="#ab721c" stroke="#1c1c1c"></path><path d="M0 360L0 409L56 408Z" fill="#ef9c00" stroke="#1c1c1c"></path><path d="M859 450L900 450L900 421Z" fill="#ab721c" stroke="#1c1c1c"></path><path d="M0 409L0 450L39 450Z" fill="#c18017" stroke="#1c1c1c"></path></g></svg>