<svg id="visual" viewBox="0 0 960 540" width="960" height="540" xmlns="http://www.w3.org/2000/svg" xmlns:xlink="http://www.w3.org/1999/xlink" version="1.1"><path d="M0 158L87 55L175 131L262 168L349 114L436 33L524 152L611 109L698 158L785 98L873 82L960 87L960 0L873 0L785 0L698 0L611 0L524 0L436 0L349 0L262 0L175 0L87 0L0 0Z" fill="#ef9c00"></path><path d="M0 168L87 71L175 163L262 201L349 158L436 55L524 190L611 152L698 174L785 109L873 109L960 141L960 85L873 80L785 96L698 156L611 107L524 150L436 31L349 112L262 166L175 129L87 53L0 156Z" fill="#da8f0e"></path><path d="M0 249L87 174L175 239L262 266L349 314L436 217L524 266L611 282L698 244L785 233L873 217L960 249L960 139L873 107L785 107L698 172L611 150L524 188L436 53L349 156L262 199L175 161L87 69L0 166Z" fill="#c58216"></path><path d="M0 293L87 185L175 271L262 287L349 357L436 233L524 303L611 314L698 293L785 271L873 260L960 260L960 247L873 215L785 231L698 242L611 280L524 264L436 215L349 312L262 264L175 237L87 172L0 247Z" fill="#b1761b"></path><path d="M0 314L87 266L175 325L262 320L349 384L436 298L524 320L611 325L698 347L785 336L873 271L960 287L960 258L873 258L785 269L698 291L611 312L524 301L436 231L349 355L262 285L175 269L87 183L0 291Z" fill="#9d6a1e"></path><path d="M0 330L87 298L175 368L262 374L349 390L436 341L524 368L611 368L698 363L785 341L873 314L960 320L960 285L873 269L785 334L698 345L611 323L524 318L436 296L349 382L262 318L175 323L87 264L0 312Z" fill="#8a5e1f"></path><path d="M0 357L87 357L175 438L262 395L349 406L436 406L524 401L611 401L698 406L785 352L873 363L960 336L960 318L873 312L785 339L698 361L611 366L524 366L436 339L349 388L262 372L175 366L87 296L0 328Z" fill="#765220"></path><path d="M0 449L87 460L175 471L262 465L349 455L436 471L524 460L611 455L698 471L785 465L873 449L960 433L960 334L873 361L785 350L698 404L611 399L524 399L436 404L349 404L262 393L175 436L87 355L0 355Z" fill="#644721"></path><path d="M0 476L87 498L175 487L262 482L349 487L436 476L524 476L611 465L698 492L785 471L873 476L960 465L960 431L873 447L785 463L698 469L611 453L524 458L436 469L349 453L262 463L175 469L87 458L0 447Z" fill="#513b20"></path><path d="M0 503L87 509L175 503L262 487L349 492L436 498L524 487L611 498L698 503L785 503L873 492L960 498L960 463L873 474L785 469L698 490L611 463L524 474L436 474L349 485L262 480L175 485L87 496L0 474Z" fill="#3f311f"></path><path d="M0 536L87 514L175 514L262 519L349 503L436 519L524 503L611 509L698 514L785 519L873 509L960 519L960 496L873 490L785 501L698 501L611 496L524 485L436 496L349 490L262 485L175 501L87 507L0 501Z" fill="#2e261e"></path><path d="M0 541L87 541L175 541L262 541L349 541L436 541L524 541L611 541L698 541L785 541L873 541L960 541L960 517L873 507L785 517L698 512L611 507L524 501L436 517L349 501L262 517L175 512L87 512L0 534Z" fill="#1c1c1c"></path></svg>