<svg id="visual" viewBox="0 0 900 600" width="900" height="600" xmlns="http://www.w3.org/2000/svg" xmlns:xlink="http://www.w3.org/1999/xlink" version="1.1"><rect x="0" y="0" width="900" height="600" fill="#141414"></rect><path d="M0 326L64 326L64 264L129 264L129 272L193 272L193 316L257 316L257 277L321 277L321 308L386 308L386 330L450 330L450 270L514 270L514 283L579 283L579 265L643 265L643 332L707 332L707 288L771 288L771 262L836 262L836 251L900 251L900 266L900 601L900 601L836 601L836 601L771 601L771 601L707 601L707 601L643 601L643 601L579 601L579 601L514 601L514 601L450 601L450 601L386 601L386 601L321 601L321 601L257 601L257 601L193 601L193 601L129 601L129 601L64 601L64 601L0 601Z" fill="#1c1c1c"></path><path d="M0 373L64 373L64 336L129 336L129 356L193 356L193 379L257 379L257 347L321 347L321 397L386 397L386 376L450 376L450 335L514 335L514 367L579 367L579 345L643 345L643 345L707 345L707 331L771 331L771 328L836 328L836 395L900 395L900 374L900 601L900 601L836 601L836 601L771 601L771 601L707 601L707 601L643 601L643 601L579 601L579 601L514 601L514 601L450 601L450 601L386 601L386 601L321 601L321 601L257 601L257 601L193 601L193 601L129 601L129 601L64 601L64 601L0 601Z" fill="#1f1f1f"></path><path d="M0 469L64 469L64 454L129 454L129 415L193 415L193 413L257 413L257 440L321 440L321 440L386 440L386 415L450 415L450 456L514 456L514 437L579 437L579 473L643 473L643 427L707 427L707 444L771 444L771 409L836 409L836 440L900 440L900 421L900 601L900 601L836 601L836 601L771 601L771 601L707 601L707 601L643 601L643 601L579 601L579 601L514 601L514 601L450 601L450 601L386 601L386 601L321 601L321 601L257 601L257 601L193 601L193 601L129 601L129 601L64 601L64 601L0 601Z" fill="#232323"></path><path d="M0 517L64 517L64 490L129 490L129 504L193 504L193 518L257 518L257 521L321 521L321 494L386 494L386 524L450 524L450 545L514 545L514 515L579 515L579 495L643 495L643 527L707 527L707 503L771 503L771 495L836 495L836 527L900 527L900 533L900 601L900 601L836 601L836 601L771 601L771 601L707 601L707 601L643 601L643 601L579 601L579 601L514 601L514 601L450 601L450 601L386 601L386 601L321 601L321 601L257 601L257 601L193 601L193 601L129 601L129 601L64 601L64 601L0 601Z" fill="#262626"></path></svg>