<!--?xml version="1.0" standalone="no"?-->
              <svg id="sw-js-blob-svg" viewBox="0 0 100 100" xmlns="http://www.w3.org/2000/svg" version="1.1">
                    <defs> 
                        <linearGradient id="sw-gradient" x1="0" x2="1" y1="1" y2="0">
                            <stop id="stop1" stop-color="rgba(38, 38, 38, 1)" offset="0%"></stop>
                            <stop id="stop2" stop-color="rgba(38, 38, 38, 1)" offset="100%"></stop>
                        </linearGradient>
                    </defs>
                <path fill="url(#sw-gradient)" d="M25.6,-29.3C32.7,-24.6,37.5,-16,38.9,-7C40.2,2,38.2,11.4,33.2,18.3C28.2,25.2,20.3,29.6,11.6,33.5C2.9,37.4,-6.6,40.7,-14.5,38.4C-22.4,36.1,-28.7,28.2,-33.8,19.4C-38.9,10.7,-42.9,1.2,-41.9,-7.9C-40.9,-16.9,-34.8,-25.6,-27,-30.1C-19.1,-34.6,-9.6,-35,-0.1,-34.8C9.3,-34.6,18.6,-33.9,25.6,-29.3Z" width="100%" height="100%" transform="translate(50 50)" stroke-width="0" style="transition: 0.3s;" stroke="url(#sw-gradient)"></path>
              </svg>